<svg xmlns="http://www.w3.org/2000/svg" width="32" height="32" viewBox="0 0 32 32" fill="none">
  <rect width="32" height="32" rx="6" fill="#f59e0b"/>
  <path d="M8 12c0-1 1-2 3-3s4-1 5-1 3 0 5 1 3 2 3 3v12c0 1-1 2-3 2H11c-2 0-3-1-3-2V12z" fill="#fff" opacity="0.9"/>
  <path d="M11 10c1-2 3-3 5-3s4 1 5 3" stroke="#f59e0b" stroke-width="1.5" fill="none"/>
  <ellipse cx="16" cy="18" rx="5" ry="3" fill="#f59e0b" opacity="0.3"/>
  <circle cx="14" cy="16" r="1" fill="#f59e0b" opacity="0.6"/>
  <circle cx="18" cy="19" r="0.5" fill="#f59e0b" opacity="0.8"/>
</svg>